solid 
 facet normal -1.000000e+00  0.000000e+00  0.000000e+00
   outer loop
     vertex  4.000000e+02 -9.000000e+01  2.000000e+02
     vertex  4.000000e+02  9.000000e+01  1.000000e+02
     vertex  4.000000e+02 -9.000000e+01  1.000000e+02
   endloop
 endfacet
 facet normal -1.000000e+00  0.000000e+00  0.000000e+00
   outer loop
     vertex  4.000000e+02 -9.000000e+01  2.000000e+02
     vertex  4.000000e+02  9.000000e+01  2.000000e+02
     vertex  4.000000e+02  9.000000e+01  1.000000e+02
   endloop
 endfacet
 facet normal  0.000000e+00  0.000000e+00 -1.000000e+00
   outer loop
     vertex  4.000000e+02 -9.000000e+01  1.000000e+02
     vertex  6.000000e+02  9.000000e+01  1.000000e+02
     vertex  6.000000e+02 -9.000000e+01  1.000000e+02
   endloop
 endfacet
 facet normal  0.000000e+00  0.000000e+00 -1.000000e+00
   outer loop
     vertex  4.000000e+02 -9.000000e+01  1.000000e+02
     vertex  4.000000e+02  9.000000e+01  1.000000e+02
     vertex  6.000000e+02  9.000000e+01  1.000000e+02
   endloop
 endfacet
 facet normal  0.000000e+00 -0.000000e+00  1.000000e+00
   outer loop
     vertex  6.000000e+02 -9.000000e+01  2.000000e+02
     vertex  6.000000e+02  9.000000e+01  2.000000e+02
     vertex  4.000000e+02  9.000000e+01  2.000000e+02
   endloop
 endfacet
 facet normal  0.000000e+00  0.000000e+00  1.000000e+00
   outer loop
     vertex  6.000000e+02 -9.000000e+01  2.000000e+02
     vertex  4.000000e+02  9.000000e+01  2.000000e+02
     vertex  4.000000e+02 -9.000000e+01  2.000000e+02
   endloop
 endfacet
 facet normal  0.000000e+00  1.000000e+00  0.000000e+00
   outer loop
     vertex  6.000000e+02  9.000000e+01  2.000000e+02
     vertex  4.000000e+02  9.000000e+01  1.000000e+02
     vertex  4.000000e+02  9.000000e+01  2.000000e+02
   endloop
 endfacet
 facet normal  0.000000e+00  1.000000e+00  0.000000e+00
   outer loop
     vertex  6.000000e+02  9.000000e+01  2.000000e+02
     vertex  6.000000e+02  9.000000e+01  1.000000e+02
     vertex  4.000000e+02  9.000000e+01  1.000000e+02
   endloop
 endfacet
 facet normal  1.000000e+00  0.000000e+00  0.000000e+00
   outer loop
     vertex  6.000000e+02 -9.000000e+01  1.000000e+02
     vertex  6.000000e+02  9.000000e+01  1.000000e+02
     vertex  6.000000e+02  9.000000e+01  2.000000e+02
   endloop
 endfacet
 facet normal  1.000000e+00  0.000000e+00  0.000000e+00
   outer loop
     vertex  6.000000e+02 -9.000000e+01  1.000000e+02
     vertex  6.000000e+02  9.000000e+01  2.000000e+02
     vertex  6.000000e+02 -9.000000e+01  2.000000e+02
   endloop
 endfacet
 facet normal -0.000000e+00 -1.000000e+00  0.000000e+00
   outer loop
     vertex  6.000000e+02 -9.000000e+01  2.000000e+02
     vertex  4.000000e+02 -9.000000e+01  2.000000e+02
     vertex  4.000000e+02 -9.000000e+01  1.000000e+02
   endloop
 endfacet
 facet normal  0.000000e+00 -1.000000e+00 -0.000000e+00
   outer loop
     vertex  6.000000e+02 -9.000000e+01  2.000000e+02
     vertex  4.000000e+02 -9.000000e+01  1.000000e+02
     vertex  6.000000e+02 -9.000000e+01  1.000000e+02
   endloop
 endfacet
endsolid
